<svg height="512pt" viewBox="0 -31 512 512" width="512pt" xmlns="http://www.w3.org/2000/svg"><path d="m256 0c-33 0-60 27-60 60s27 60 60 60 60-27 60-60-27-60-60-60zm0 0" fill="#73bcff"/><path d="m331 195v45h-150v-45c0-41.398438 33.601562-75 75-75 20.699219 0 39.601562 8.398438 53.101562 21.898438 13.496094 13.5 21.898438 32.402343 21.898438 53.101562zm0 0" fill="#73bcff"/><path d="m316 60c0 33-27 60-60 60v-120c33 0 60 27 60 60zm0 0" fill="#0095ff"/><path d="m331 195v45h-75v-120c20.699219 0 39.601562 8.398438 53.101562 21.898438 13.496094 13.5 21.898438 32.402343 21.898438 53.101562zm0 0" fill="#0095ff"/><path d="m76 0c-33 0-60 27-60 60s27 60 60 60 60-27 60-60-27-60-60-60zm0 0" fill="#73bcff"/><path d="m151 195v45h-150v-45c0-41.398438 33.601562-75 75-75 20.699219 0 39.601562 8.398438 53.101562 21.898438 13.496094 13.5 21.898438 32.402343 21.898438 53.101562zm0 0" fill="#73bcff"/><path d="m136 60c0 33-27 60-60 60v-120c33 0 60 27 60 60zm0 0" fill="#0095ff"/><path d="m151 195v45h-75v-120c20.699219 0 39.601562 8.398438 53.101562 21.898438 13.496094 13.5 21.898438 32.402343 21.898438 53.101562zm0 0" fill="#0095ff"/><path d="m436 0c-33 0-60 27-60 60s27 60 60 60 60-27 60-60-27-60-60-60zm0 0" fill="#73bcff"/><path d="m511 195v45h-150v-45c0-41.398438 33.601562-75 75-75 20.699219 0 39.601562 8.398438 53.101562 21.898438 13.496094 13.5 21.898438 32.402343 21.898438 53.101562zm0 0" fill="#73bcff"/><path d="m496 60c0 33-27 60-60 60v-120c33 0 60 27 60 60zm0 0" fill="#0095ff"/><path d="m511 195v45h-75v-120c20.699219 0 39.601562 8.398438 53.101562 21.898438 13.496094 13.5 21.898438 32.402343 21.898438 53.101562zm0 0" fill="#0095ff"/><path d="m112.898438 391.800781 8.703124 58.199219-45.601562-31.199219-46.800781 31.199219 9-58.199219-38.199219-36.300781 52.300781-7.5 23.699219-46.800781 22.5 46.800781 52.5 7.5zm0 0" fill="#ffd400"/><path d="m112.898438 391.800781 8.703124 58.199219-45.601562-31.199219v-117.601562l22.5 46.800781 52.5 7.5zm0 0" fill="#ff9f00"/><path d="m292.898438 391.800781 8.703124 58.199219-45.601562-31.199219-46.800781 31.199219 9-58.199219-37.199219-36.300781 51.300781-7.5 23.699219-46.800781 22.5 46.800781 52.5 7.5zm0 0" fill="#ffd400"/><path d="m292.898438 391.800781 8.703124 58.199219-45.601562-31.199219v-117.601562l22.5 46.800781 52.5 7.5zm0 0" fill="#ff9f00"/><path d="m472.898438 391.800781 8.703124 58.199219-45.601562-31.199219-46.800781 31.199219 9-58.199219-37.199219-36.300781 51.300781-7.5 23.699219-46.800781 22.5 46.800781 53.5 7.5zm0 0" fill="#ffd400"/><path d="m472.898438 391.800781 8.703124 58.199219-45.601562-31.199219v-117.601562l22.5 46.800781 53.5 7.5zm0 0" fill="#ff9f00"/></svg>